<svg id="e536dbe6-Layer_1" xmlns="http://www.w3.org/2000/svg" xmlns:xlink="http://www.w3.org/1999/xlink" viewBox="0 0 350 350"><style>.face__bg{fill:#e5e6e7}.st-e536dbe6-0{clip-path:url(#e536dbe6-SVGID_2_)}.st-e536dbe6-1{fill:#6f7273}.st-e536dbe6-2{fill:#4f5353}.st-e536dbe6-3{fill:#6f9d52}.st-e536dbe6-4{fill:#474748}.st-e536dbe6-5{fill:#9d6733}.st-e536dbe6-6{fill:#7f5124}.st-e536dbe6-7{fill:#f5cbb3}.st-e536dbe6-8{fill:#c3927d}.st-e536dbe6-9{fill:#fee5d6}.st-e536dbe6-10{fill:#74665c}.st-e536dbe6-11{fill:#8f7f74}.st-e536dbe6-12{fill:#7e5025}.st-e536dbe6-13{fill:#b07646}.st-e536dbe6-14{fill:#2b2c2b}.st-e536dbe6-15{fill:#fff}.st-e536dbe6-16{fill:#d1a1b9}</style><g id="e536dbe6-Layer_3"><defs><circle class="face__bg" id="e536dbe6-SVGID_1_" cx="175" cy="175" r="175"/></defs><use xlink:href="#e536dbe6-SVGID_1_" overflow="visible"/><clipPath id="e536dbe6-SVGID_2_"><use xlink:href="#e536dbe6-SVGID_1_" overflow="visible"/></clipPath><g class="st-e536dbe6-0"><path class="st-e536dbe6-1" d="M99.8 294.3l-26 3.6-14.1 39.8 96.4 3-56.3-46.4z"/><path class="st-e536dbe6-2" d="M99.8 251.6l-10 17.3-16 28.9 57.8 29.6 4.5-52-36.3-23.8z"/><path class="st-e536dbe6-3" d="M279.2 295.5v-26.6l-49.6-15.3-102.3 18.9-9.9 19.9 1.2 69.1 89.4 39.6 71.1-37.8v-67.8z"/><path class="st-e536dbe6-4" d="M143.3 294.6l9.9 17.9-6.9 101.4-37.3-9.5 8.3-84.5 26-25.3zm96.5 25l-18.5-29.3-38.6 29.1-2.6 102.3 37.3-27 44.8 19.5 6.3-44.5-16.3-35.5-12.4-14.6z"/><path class="st-e536dbe6-1" d="M262.2 340.6L246.1 351l-36 31.1 2.1 29.3 90.5-28-40.5-42.8z"/><path class="st-e536dbe6-2" d="M276.7 297.9l12.7 16.5 13.1 69-56.4-32.4-6.2-31.4 36.8-21.7z"/><path class="st-e536dbe6-1" d="M279.2 268.9l-39.4 50.6 49.6-5.2-10.2-45.4z"/><path class="st-e536dbe6-5" d="M80.2 114L69.6 249.8l47.8 70 2.4-106.6-11.6-102.6-28 3.4z"/><path class="st-e536dbe6-6" d="M127.1 251.4l-5.4 6.9 4.4 26.5 17.2 9.7 20.9-11.2-17.4-29.7-19.7-2.2z"/><path class="st-e536dbe6-6" d="M87.4 251l30 68.8 5.1-20.1 9.4-40-34.3-49.1L87.4 251z"/><path class="st-e536dbe6-7" d="M161.8 263.6l21.9 3-21.8 24.9 40.5-12 9.4-3 17.2-43-1.4-96.8-17.3 8.3-15.2 69.6-46.7 42.8 13.4 6.2z"/><path class="st-e536dbe6-8" d="M228.6 211.6l-7.8-9.5 11.2-1.6-3.4 11.1z"/><path class="st-e536dbe6-9" d="M224.3 184.4l-3.5 17.7 10.4.8 1.8-8-8.7-10.5z"/><path class="st-e536dbe6-6" d="M228.6 211.6L208.4 279l31.4 40.6 9-30.2-6.1-37.2-14.1-40.6z"/><path class="st-e536dbe6-5" d="M279.2 268.9l-39.4 50.6L219.2 145l11.2 11.6 37.5 73 11.3 39.3z"/><path class="st-e536dbe6-10" d="M272.5 142.6l-37.8-74.2-16 4.4-7.6 7 .7 14.7 7.5 50.7 53.2-2.6z"/><path class="st-e536dbe6-5" d="M121.7 258.3l21.6 36.3-25.9 25.3 4.3-61.6z"/><path class="st-e536dbe6-11" d="M143.1 50.8l.1 7.9 8.5 16.6 60 19 23-26-91.6-17.5z"/><path class="st-e536dbe6-10" d="M80.2 114l62.9-63.1 8.6 25.4-52.5 41.2-19-3.5z"/><path class="st-e536dbe6-7" d="M110.9 230.4l-5.2-18.9M208.4 278.9l25.5-56.9 1.7-50.5-18-23.3L172 257.4l-8.6 47.8 45-26.3z"/><path class="st-e536dbe6-9" d="M98.4 104.9V212l18.9 38.8 27.3 3.1 18 10.7 14-6.4 23.2-37.1 19.7-97.7-82-42.6-39.1 24.1z"/><path class="st-e536dbe6-7" d="M102.5 150.5l18.2 16 16.9 34.2 8.2 4.1 7.1-2.5 28.3-29.1 24.7-13.4-15.7-4.6-24.4.3-13 12.5-4.9 5.7-3.7-6.5-5.6-14.7-17.7-5-18.4 3z"/><path class="st-e536dbe6-12" d="M279.2 268.9l-6.7-126.3-60 18 10.5 21.1 3.7 15.7 10.1 8.9 42.4 62.6zM80.2 114l18.2 47 6.1-45.1 5.2-12.4-3.1-13.1L80.2 114z"/><path class="st-e536dbe6-5" d="M111.8 124.3l-4.1 13.5L80.2 114l43.7-48.8-3.1 49-9 10.1z"/><path class="st-e536dbe6-13" d="M122.6 134.9l-10.8-10.6 12-59.1 10.4 40.3-2.2 17.6-9.4 11.8z"/><path class="st-e536dbe6-12" d="M149.2 138.3L132 123.1l5.5-42.5 5.6-29.8 20.6 29.5-.6 26.3-13.9 31.7z"/><path class="st-e536dbe6-5" d="M123.9 65.2l19.2-14.3-11.1 72.2-8.1-57.9zm48 9.5l-28.8-23.9 17.4 63.6L178 142l10.1-19.4-.3-33.6-15.9-14.3z"/><path class="st-e536dbe6-13" d="M234.7 68.4l-91.6-17.5 45 71.8 14.5 25.5 11.3-31.4 20.8-48.4z"/><path class="st-e536dbe6-8" d="M144.6 253.8l18.7 51.4 35.4-44.2-54.1-7.2z"/><path class="st-e536dbe6-9" d="M144.2 167.2l-7.9 33.5 17.9 1.7-1.4-34.4-8.6-.8z"/><path class="st-e536dbe6-8" d="M144 207.9l-7.7-7.2 17.9 1.7-10.2 5.5z"/><path class="st-e536dbe6-5" d="M102.4 148.8l10-5.2 27 3.4-.9 5.5-24.4-3.9-11.7.2zm103.5 11l-14.2-7.5-23.9-2.1-2.2 5.6 24.4 1.4 15.9 2.6zm11.2 9l-1.6 45.8 3.9-2 2.7-8.3 3.4-20.6-8.4-14.9z"/><path class="st-e536dbe6-13" d="M222.6 247.2l-7.2-32.6 6.5-10.2.7 42.8z"/><path class="st-e536dbe6-5" d="M234.7 68.4L204 62.8l8.5 97.8 60-18-37.8-74.2z"/><path class="st-e536dbe6-4" d="M201.3 171.5c.1 0 2-6.5 2.1-6.6l24.6 6c.3-.1-1.1 7-1.1 7 .1.2-25.6-6.4-25.6-6.4zm-61.8-12.4l-.9 6.4 21.8 1.9-1.8-6.5-19.1-1.8z"/><path class="st-e536dbe6-2" d="M97.8 151.6l.5 29.5 37.9 4.9 5.2-6.8 1.4-22.7-45-4.9zm39.2 25.5l-4.2 3.9-30.1-3.6-.7-20.7 36 3.5-1 16.9zm19.3-18.4l-1.5 21.4 6.5 10.5 35.1 4.2 6.1-7.3.9-22.6-47.1-6.2zm41.4 10.8l-1.5 16.3-2.4 3.1-29.5-3.3-4.7-6.3 1.3-14.9 36.8 5.1z"/><path class="st-e536dbe6-9" d="M228 169.6l-6.3 34.4 12.4 7.8 6.1-3.9 8.9-32.6-21.1-5.7z"/><path class="st-e536dbe6-14" d="M178.3 172.7c2.9.3 5 2.8 4.7 5.5-.3 2.8-3 4.7-5.9 4.4-2.9-.3-5-2.8-4.7-5.5.2-2.8 3-4.8 5.9-4.4m-55.6-7.5c-3-.3-5.6 1.7-5.8 4.5-.3 2.8 1.9 5.3 4.9 5.6 2.9.3 5.6-1.7 5.8-4.5.2-2.8-2-5.3-4.9-5.6"/><path class="st-e536dbe6-8" d="M228.9 191.6l3-14.9 10.9 2.5-13.9 12.4zm-7.2 12.4l12.2 18 6.2-14.2-18.4-3.8z"/><path class="st-e536dbe6-15" d="M169.4 223.6l-26-5.7-22.1-1.1 16.7 15 16.9-2.4 14.5-5.8z"/><path class="st-e536dbe6-16" d="M174.6 223.5l-19.6-6-16.1-2.1-21.2.8 16.8 4.9 19.1 1.8 21 .6z"/><path class="st-e536dbe6-16" d="M174.6 223.5L148 236.3l-10.2-.8-20.1-19.3 3.8.6 17.5 11.7 9.1.2 21.9-6.3 4.6 1.1z"/><path class="st-e536dbe6-7" d="M127.4 195.9l-12.2 13.7-.1 9.7 2.4-3 9.9-20.4zm36.8 3.5l12.5 13.7-2.2 6.6-10.3-20.3z"/></g></g></svg>