<svg width="150" height="150" viewBox="0 0 150 150" xmlns="http://www.w3.org/2000/svg">
    <g fill="none" fill-rule="evenodd">
        <path fill="#51596A" opacity=".1" d="m36.39 35.934 5.224 34.156L14.63 88.783l-.326 8.457 33.075 11.899 23.322 40.86 24.487-39.926 44.213-3.342.323-8.456-28.174-20.9L99.51 49.96l14.873-18-38.288 27.435-39.26-30.113z"/>
        <path fill="#AC923C" d="m14.75 90.588.323-8.456 26.989-18.694-5.224-34.156 4.392-11.955 35.314 35.416 38.288-27.436 2.947 10.444-5.782 34.973 28.174 20.899-.323 8.456-44.213 3.345-24.488 39.923-23.325-40.86z"/>
        <path fill="#E5C828" d="M77.903 39.557 41.23 17.327l34.332 52.666z"/>
        <path fill="#F4D75D" d="m45.552 57.985-4.324-40.658L75.56 69.993z"/>
        <path fill="#E5C828" d="m107.413 61.386 7.418-36.08-39.27 44.686z"/>
        <path fill="#F4D75D" d="m77.903 39.557 36.926-14.25-39.266 44.686z"/>
        <path fill="#E5C828" d="m90.347 92.676 49.823-1.053-64.61-21.63z"/>
        <path fill="#F4D75D" d="m107.413 61.386 32.757 30.236-64.61-21.63z"/>
        <path fill="#E5C828" d="m52.774 92.51 19.733 37.654 3.052-60.17z"/>
        <path fill="#F4D75D" d="m90.347 92.676-17.84 37.486 3.053-60.17z"/>
        <path fill="#E5C828" d="m45.552 57.985-30.48 24.147 60.488-12.14z"/>
        <path fill="#F4D75D" d="m52.774 92.51-37.7-10.38L75.56 69.993z"/>
        <path fill="#CCAD14" d="m95.635 103.423-5.288-10.748-17.839 37.49-1.361 13.185zM52.774 92.51l-4.95 9.978L14.752 90.59l.323-8.46z"/>
        <path fill="#F4D75D" d="M83.233 0 72.08 24.147l18.694 1.158zM127.398 70.35 150 56.664l-27.953-3.61zM111.346 109.777l-15.379 9.532 21.507 16.853zM50.127 119.975l-14.862-11.407-9.307 24.097zM21.068 63.282l6.195-16.586L0 44.738z"/>
    </g>
</svg>
