<svg id="13ac7755-illustration" xmlns="http://www.w3.org/2000/svg" viewBox="0 0 350 350"><defs><style>.cls-13ac7755-1{fill:none;}.face__bg{fill:#ececeb;}.cls-13ac7755-3{clip-path:url(#13ac7755-clip-path);}.cls-13ac7755-4{fill:#3f8f6f;}.cls-13ac7755-17,.cls-13ac7755-5{fill:#dfbda5;}.cls-13ac7755-20,.cls-13ac7755-6{fill:#c3987b;}.cls-13ac7755-7{fill:#709d53;}.cls-13ac7755-22,.cls-13ac7755-8{fill:#2b2b2b;}.cls-13ac7755-8{fill-opacity:0.1;}.cls-13ac7755-9{fill:#72c9a6;}.cls-13ac7755-10{fill:#e8f078;}.cls-13ac7755-11{fill:#35785d;}.cls-13ac7755-12{fill:#737373;}.cls-13ac7755-13,.cls-13ac7755-19{fill:#8b6651;}.cls-13ac7755-14{fill:#54b08b;}.cls-13ac7755-15{fill:#5a753d;}.cls-13ac7755-15,.cls-13ac7755-16,.cls-13ac7755-17,.cls-13ac7755-18,.cls-13ac7755-19,.cls-13ac7755-20,.cls-13ac7755-21,.cls-13ac7755-22{fill-rule:evenodd;}.cls-13ac7755-16{fill:#446125;}.cls-13ac7755-18{fill:#738d57;}.cls-13ac7755-21{fill:#e8cab6;}</style><clipPath id="13ac7755-clip-path"><circle class="cls-13ac7755-1" cx="175" cy="175" r="175"/></clipPath></defs><circle class="face__bg" cx="175" cy="175" r="175"/><g class="cls-13ac7755-3"><polygon class="cls-13ac7755-4" points="228.35 421.73 199.36 381.43 197.94 346.25 211.84 309.36 267.9 389.74 256.38 396.75 228.35 421.73"/><polygon class="cls-13ac7755-5" points="279.58 429.43 228.35 421.73 286.27 349.94 306.41 351.36 307.26 370.94 279.58 429.43"/><polygon class="cls-13ac7755-6" points="327.13 313.61 310.42 326.04 299.04 355.62 307.26 370.94 337.62 359.87 340.46 328.38 327.13 313.61"/><polygon class="cls-13ac7755-5" points="363 309.75 327.13 313.61 337.62 359.87 363.41 346.81 363 309.75"/><polygon class="cls-13ac7755-5" points="289.1 343.7 296.2 353.35 303.29 357.32 315.5 345.97 319.75 300.01 311.24 297.45 289.1 343.7"/><polygon class="cls-13ac7755-7" points="287.6 342.48 279.61 353.74 295.16 367.81 303.58 357.32 287.6 342.48"/><polygon class="cls-13ac7755-5" points="178.84 289.75 184.1 292.49 187.35 296.56 193.02 297.98 211.75 309.33 204.09 347.35 171.46 378.27 87.19 329.48 68.19 298.55 98.75 285 104.78 286.35 106.7 281.32 113.01 277.55 178.84 289.75"/><polyline class="cls-13ac7755-8" points="168.91 328.91 171.75 397.85 165.79 402.39 70 370.61 68.19 298.55"/><polygon class="cls-13ac7755-9" points="211.75 309.33 223.95 391.89 171.46 404.38 70 370.61 68.19 298.55 85.39 290.88 168.91 328.91 198.88 301.45 211.75 309.33"/><polygon class="cls-13ac7755-4" points="190.75 309.05 184.1 292.49 193.02 297.98 197.56 307.34 196.14 313.3 190.75 309.05"/><polygon class="cls-13ac7755-10" points="200.97 316.71 196.14 313.3 192.17 318.41 197.85 322.38 200.97 316.71"/><polygon class="cls-13ac7755-11" points="201.25 325.5 197.85 322.38 194.16 326.07 193.02 357.85 196.43 360.12 200.12 358.41 201.25 325.5"/><polygon class="cls-13ac7755-11" points="130.89 347.35 129.19 353.88 122.38 351.04 110.46 319.54 112.73 313.3 118.4 316.42 130.89 347.35"/><polygon class="cls-13ac7755-10" points="115.85 306.21 112.73 313.3 105.92 310.18 109.61 303.37 115.85 306.21"/><polygon class="cls-13ac7755-4" points="106.7 281.32 112.44 296.56 109.61 303.37 104.22 297.7 98.75 285 106.7 281.32"/><polygon class="cls-13ac7755-6" points="142.04 113.68 151.58 193.02 147.46 232.98 148.19 266.2 171.46 298.83 172.03 309.33 113.01 277.55 101.09 243.79 94.86 184.77 142.04 113.68"/><polygon class="cls-13ac7755-12" points="184.1 292.49 166.69 357.57 106.7 281.32 113.01 277.55 164.06 341.59 172.03 309.33 170.33 297.41 179.12 289.47 184.1 292.49"/><polygon class="cls-13ac7755-13" points="183.93 253.74 191.3 261.4 172.03 309.33 139.22 278.34 168.62 261.1 183.93 253.74"/><polygon class="cls-13ac7755-14" points="76.89 422.8 18.34 379.65 68.19 298.55 76.89 422.8"/><polygon class="cls-13ac7755-15" points="256.05 279.53 268.5 255.23 270.27 240.42 258.33 205.56 256.05 279.53"/><polygon class="cls-13ac7755-16" points="287.92 214.44 269.11 191.68 252.48 202.29 270.27 240.42 287.92 214.44"/><polygon class="cls-13ac7755-16" points="282.06 182.71 287.92 214.43 274.13 208.87 266.63 205.85 265.06 189.15 271.57 177.54 278.24 177.63 282.06 182.71"/><polygon class="cls-13ac7755-16" points="79.16 236.49 55.74 219.87 62.93 198.8 75.94 183.75 90.89 183.31 94 192.96 88.36 210.31 79.16 236.49"/><polygon class="cls-13ac7755-17" points="279.19 133.75 259.03 287.33 139.22 278.34 137.9 131.72 171.93 111.17 233.44 112.17 279.19 133.75"/><polygon class="cls-13ac7755-16" points="137.9 131.72 120.3 138 107.25 124.83 112.86 115.77 132.91 94.18 157.81 106.37 137.9 131.72"/><polygon class="cls-13ac7755-16" points="118.6 209.02 132.91 153.31 99.13 159.61 97.34 181.33 118.6 209.02"/><polygon class="cls-13ac7755-15" points="92.42 193.07 99.11 198.32 101.68 225.46 98.46 259.4 81.45 264.69 79.16 236.49 92.42 193.07"/><polygon class="cls-13ac7755-16" points="101.68 225.46 81.45 264.69 113.01 277.55 101.68 225.46"/><polygon class="cls-13ac7755-15" points="277.25 140.83 286.56 157.91 291.21 181.96 271.99 187.71 277.25 140.83"/><polygon class="cls-13ac7755-16" points="291.21 181.96 296.69 153.17 284.36 147.28 275.09 160.08 291.21 181.96"/><polygon class="cls-13ac7755-15" points="67.75 109.2 89.9 135.82 113.72 125.72 120.79 109.41 122.64 91.52 88.48 93.35 67.75 109.2"/><polygon class="cls-13ac7755-16" points="70.94 142.86 76.53 154.05 108.78 146.29 121.48 138.84 113.72 125.72 67.75 109.2 70.94 142.86"/><polygon class="cls-13ac7755-18" points="52.85 163.05 67.28 171.75 80.5 159.24 103.22 156.79 108.78 146.29 70.94 142.86 52.85 163.05"/><polygon class="cls-13ac7755-15" points="112.34 167.6 119.53 162.6 132.91 153.31 122.45 139.13 108.78 146.29 80.5 159.24 95.98 174.7 112.34 167.6"/><polygon class="cls-13ac7755-15" points="92.42 193.07 99.3 177.47 80.5 159.24 52.85 163.05 62.93 198.8 92.42 193.07"/><polygon class="cls-13ac7755-16" points="118.6 209.02 112.34 167.6 80.5 159.24 92.42 193.07 118.6 209.02"/><polygon class="cls-13ac7755-17" points="97.83 212 118.6 209.02 92.42 193.07 97.83 212"/><polygon class="cls-13ac7755-19" points="101.68 225.46 118.6 209.02 97.83 212 101.68 225.46"/><polygon class="cls-13ac7755-16" points="279.33 115.98 288.73 110.79 290.55 126.75 296.69 153.17 275.09 160.08 268.85 128.51 279.33 115.98"/><polygon class="cls-13ac7755-16" points="259.61 91.41 277.91 128.46 279.33 115.98 290.55 126.75 298.38 91.48 264.42 82.07 259.61 91.41"/><polygon class="cls-13ac7755-15" points="261.08 129.94 250.5 116.54 259.61 91.41 279.33 115.98 278.24 125.57 275.09 160.08 261.08 129.94"/><polygon class="cls-13ac7755-18" points="237.61 74.05 243.18 92.12 259.61 91.41 298.38 91.48 265.73 72.81 237.61 74.05"/><polygon class="cls-13ac7755-16" points="233.44 112.17 223.73 94.61 237.61 74.05 259.61 91.41 261.08 129.94 233.44 112.17"/><polygon class="cls-13ac7755-18" points="216.08 129.03 212.4 81.79 210.55 49.17 237.61 74.05 233.44 112.17 216.08 129.03"/><polygon class="cls-13ac7755-16" points="186.11 122.35 181.58 102.42 212.4 81.79 216.08 129.03 186.11 122.35"/><polygon class="cls-13ac7755-18" points="172.16 135.35 157.34 109.56 174.17 80.55 181.75 74.58 212.4 81.79 186.11 122.35 172.16 135.35"/><polygon class="cls-13ac7755-15" points="137.9 131.72 142.04 113.68 142.28 93.67 174.17 80.55 172.16 135.35 137.9 131.72"/><polygon class="cls-13ac7755-18" points="88.48 93.35 102.16 75.19 130.43 75.36 174.17 80.55 142.04 113.68 88.48 93.35"/><polygon class="cls-13ac7755-15" points="162.83 62.26 140.94 64.56 174.17 80.55 189.66 81.05 212.4 81.79 210.55 49.17 162.83 62.26"/><polygon class="cls-13ac7755-16" points="102.16 75.19 121.41 52.4 162.83 62.26 162.83 62.26 174.17 80.55 132.9 83.75 102.16 75.19"/><polygon class="cls-13ac7755-15" points="125.75 181.17 102.83 199.41 118.6 209.02 128.84 206.32 125.75 181.17"/><polygon class="cls-13ac7755-18" points="137.9 131.73 132.91 153.31 108.78 146.29 113.72 125.72 137.9 131.73"/><polygon class="cls-13ac7755-20" points="259.56 182.92 245.14 170.23 221.81 173.81 216.04 197.19 217.81 226.19 240.95 185.65 259.56 182.92"/><polygon class="cls-13ac7755-20" points="206.14 172.16 207.51 196.89 197.09 224.57 183.29 182.9 159.63 169.72 183.71 164.04 206.14 172.16"/><polygon class="cls-13ac7755-19" points="217.81 226.19 206.03 233.7 197.09 224.57 207.62 222.15 217.81 226.19"/><polygon class="cls-13ac7755-21" points="221.81 173.81 217.81 226.19 197.09 224.57 206.14 172.16 221.81 173.81"/><polygon class="cls-13ac7755-18" points="244.05 167.14 259.56 182.92 221.81 173.81 244.05 167.14"/><polygon class="cls-13ac7755-18" points="183.95 158.1 206.14 172.16 159.63 169.72 183.95 158.1"/><polygon class="cls-13ac7755-20" points="227.02 252.46 204.01 251.34 176.41 246.04 200.73 263.63 227.02 252.46"/><polygon class="cls-13ac7755-19" points="214.03 249.03 227.02 252.46 202.76 253.65 176.41 246.04 194.27 245.7 205.12 243.6 214.03 249.03"/><path class="cls-13ac7755-22" d="M239,186a7.81,7.81,0,1,0,8.16,7.44A7.8,7.8,0,0,0,239,186"/><path class="cls-13ac7755-22" d="M182.3,177.75a7.81,7.81,0,1,0,8.17,7.45,7.82,7.82,0,0,0-8.17-7.45"/></g></svg>