<svg id="99c8f345-illustration" xmlns="http://www.w3.org/2000/svg" viewBox="0 0 350 350"><defs><style>.cls-99c8f345-1{fill:none;}.cls-99c8f345-19,.face__bg{fill:#ececeb;}.cls-99c8f345-3{clip-path:url(#99c8f345-clip-path);}.cls-99c8f345-4{fill:#dddddc;}.cls-99c8f345-10,.cls-99c8f345-17,.cls-99c8f345-18,.cls-99c8f345-19,.cls-99c8f345-20,.cls-99c8f345-22,.cls-99c8f345-23,.cls-99c8f345-24,.cls-99c8f345-4,.cls-99c8f345-5,.cls-99c8f345-6,.cls-99c8f345-7,.cls-99c8f345-8,.cls-99c8f345-9{fill-rule:evenodd;}.cls-99c8f345-5{fill:#96637c;}.cls-99c8f345-6{fill:#dfbda5;}.cls-99c8f345-16,.cls-99c8f345-7{fill:#c3987b;}.cls-99c8f345-12,.cls-99c8f345-8{fill:#8b6651;}.cls-99c8f345-9{fill:#b3889d;}.cls-99c8f345-10{fill:#fff;}.cls-99c8f345-11{fill:#e8cab6;}.cls-99c8f345-13,.cls-99c8f345-22{fill:#594165;}.cls-99c8f345-14,.cls-99c8f345-18{fill:#543042;}.cls-99c8f345-15,.cls-99c8f345-20{fill:#9075a0;}.cls-99c8f345-17{fill:#734d60;}.cls-99c8f345-21{fill:#8f8f8f;}.cls-99c8f345-23{fill:#c4c4c4;}.cls-99c8f345-24{fill:#a3a3a3;}.cls-99c8f345-25{fill:#2b2b2b;}</style><clipPath id="99c8f345-clip-path"><circle class="cls-99c8f345-1" cx="175.36" cy="175" r="175"/></clipPath></defs><circle class="face__bg" cx="175.36" cy="175" r="175"/><g class="cls-99c8f345-3"><path class="cls-99c8f345-4" d="M185.06,368.89c15.81-.63,31.62-1.38,47.44-1.9L174,294.41l-39.1,39,15.88,35.31C162.21,368.33,173.63,368.53,185.06,368.89Z"/><polygon class="cls-99c8f345-5" points="66.43 351.33 15.77 316.04 63.07 301.84 145.9 265.32 66.43 351.33"/><path class="cls-99c8f345-4" d="M268.11,366.56q19.84.26,39.63,1.68l2.89-45.06-41.52-51.63-35.55,4.86,32.86,82.95Z"/><polygon class="cls-99c8f345-5" points="81.81 111.63 11.21 232.93 145.9 265.32 81.81 111.63"/><polygon class="cls-99c8f345-6" points="237.77 78.67 249.27 86.82 296.66 218.71 244.6 241.47 224.11 306.36 174.01 294.4 92.05 209.59 92.05 96.4 198.33 48.25 237.77 78.67"/><polygon class="cls-99c8f345-7" points="224.11 306.36 229.53 289.17 229.53 289.17 183.69 268.22 203.05 259.11 151.82 132.74 132.46 116.24 92.05 209.59 174.01 294.4 224.11 306.36"/><polygon class="cls-99c8f345-8" points="183.69 268.22 229.53 289.17 229.53 289.17 244.6 241.47 183.69 268.22"/><polygon class="cls-99c8f345-9" points="132.46 116.24 237.77 78.67 199.2 43.09 86.07 93.47 59.17 208.31 123.94 242.59 92.05 209.59 104.04 181.89 133.31 215.28 145.84 196.78 114.61 157.47 132.46 116.24"/><polygon class="cls-99c8f345-8" points="123.94 242.59 133.35 229.48 145.9 265.32 123.94 242.59"/><polygon class="cls-99c8f345-6" points="123.94 242.59 139.15 221.4 104.04 181.89 92.05 209.59 123.94 242.59"/><polygon class="cls-99c8f345-8" points="107.86 196.55 120.01 208.52 100.58 207.46 107.86 196.55"/><polygon class="cls-99c8f345-10" points="147.8 230.11 140.89 237.04 126.21 222.33 133.49 215.03 147.8 230.11"/><polygon class="cls-99c8f345-11" points="250.13 179.56 231.65 186.25 210.11 132.46 228.59 125.77 250.13 179.56"/><polygon class="cls-99c8f345-12" points="250.13 179.56 244.74 190.1 231.65 186.25 250.13 179.56"/><path class="cls-99c8f345-13" d="M210.11,132.46,159.2,151l15.33,37.8,50.58-18.46ZM170.44,156l34.79-12.64,8.71,22-34.59,12.63Z"/><path class="cls-99c8f345-13" d="M275.34,108.84l-46.75,16.93,15.33,37.81,46.41-16.89Zm-35.51,21.93,30.63-11.08,8.71,22-30.44,11Z"/><polygon class="cls-99c8f345-13" points="255.52 124.88 275.34 108.84 210.11 132.46 206.72 142.84 255.52 124.88"/><polygon class="cls-99c8f345-14" points="166.5 139.5 176.15 137.72 182.51 129.82 196.38 129.82 177.81 125.42 166.5 139.5"/><polygon class="cls-99c8f345-14" points="227.99 120.79 235.42 118.31 240.37 106.6 251.11 106.6 236.74 102.47 227.99 120.79"/><polygon class="cls-99c8f345-13" points="203.55 215.99 222.68 210.87 239.55 215.99 229.53 205.11 223.11 207.03 219.7 203.82 203.55 215.99"/><polygon class="cls-99c8f345-15" points="204.58 215.72 215 219.41 233.56 214.17 222.68 210.87 204.58 215.72"/><polygon class="cls-99c8f345-16" points="264.71 156.01 245.98 169.19 243.92 163.57 264.71 156.01"/><polygon class="cls-99c8f345-16" points="181.44 186.25 228.59 178.61 225.11 170.31 181.44 186.25"/><polygon class="cls-99c8f345-16" points="170.44 155.96 210.11 155.64 205.23 143.32 170.44 155.96"/><polygon class="cls-99c8f345-16" points="255.52 125.09 244.6 142.54 239.55 130.75 255.52 125.09"/><polygon class="cls-99c8f345-5" points="199.2 43.09 190.28 95.61 237.77 78.67 199.2 43.09"/><polygon class="cls-99c8f345-17" points="104.04 181.89 133.49 215.03 145.84 196.78 114.61 157.47 132.46 116.24 86.07 93.47 59.17 208.31 92.05 209.59 104.04 181.89"/><polygon class="cls-99c8f345-13" points="104.04 181.89 97.69 196.55 92.05 177.57 159.2 150.97 166.5 168.97 104.04 181.89"/><polygon class="cls-99c8f345-18" points="59.17 208.31 123.94 242.59 92.05 209.59 59.17 208.31"/><polygon class="cls-99c8f345-18" points="145.9 265.32 66.43 351.33 59.17 244.46 145.9 265.32"/><polygon class="cls-99c8f345-17" points="11.21 232.93 59.17 208.31 123.94 242.59 145.9 265.32 11.21 232.93"/><polygon class="cls-99c8f345-9" points="81.81 111.63 11.21 232.93 27.15 125.77 81.81 111.63"/><polygon class="cls-99c8f345-19" points="186.34 335.51 181.36 358.85 221.55 378.3 235.86 371.16 208.87 337.67 208.87 337.67 186.34 335.51"/><polygon class="cls-99c8f345-20" points="224.11 306.36 202.45 329.7 174.01 294.4 224.11 306.36"/><polygon class="cls-99c8f345-19" points="231.79 282.15 274.94 351.74 293.04 301.31 231.79 282.15"/><polygon class="cls-99c8f345-4" points="174.01 294.4 235.86 371.16 235.86 371.16 148.06 362.61 148.06 362.61 134.92 333.4 174.01 294.4"/><polygon class="cls-99c8f345-7" points="239.55 257.46 252.05 216.4 285.13 244.24 265.28 271.3 239.55 257.46"/><polygon class="cls-99c8f345-6" points="252.05 216.4 296.66 218.71 299.51 239.09 285.13 244.24 252.05 216.4"/><path class="cls-99c8f345-21" d="M307.74,368.24l2.16-33.67-18.26,9-26.36,12.94,2.41,10.07Q287.75,366.81,307.74,368.24Z"/><polygon class="cls-99c8f345-7" points="252.05 216.4 281.72 207.45 296.66 218.71 252.05 216.4"/><polygon class="cls-99c8f345-22" points="224.17 306.38 224.11 306.36 202.45 329.7 202.45 329.7 212.79 342.53 228.06 330.4 224.17 306.38"/><polygon class="cls-99c8f345-23" points="274.93 351.74 265.28 271.3 239.55 257.46 212.55 343.57 231.79 356.91 274.93 351.74"/><polygon class="cls-99c8f345-19" points="174.01 294.4 166.81 337.54 216.14 346.69 174.01 294.4"/><polygon class="cls-99c8f345-24" points="134.92 333.4 167.29 405.36 274.94 351.74 134.92 333.4"/><circle class="cls-99c8f345-25" cx="198.56" cy="153.5" r="6.58"/><circle class="cls-99c8f345-25" cx="257.02" cy="131.64" r="6.58"/></g></svg>