<svg id="1b0f9b97-illustration" xmlns="http://www.w3.org/2000/svg" viewBox="0 0 350 350"><defs><style>.cls-1b0f9b97-1{fill:none;}.face__bg{fill:#ececeb;}.cls-1b0f9b97-3{clip-path:url(#1b0f9b97-clip-path);}.cls-1b0f9b97-4,.cls-1b0f9b97-5{fill:#c3987b;}.cls-1b0f9b97-13,.cls-1b0f9b97-17,.cls-1b0f9b97-18,.cls-1b0f9b97-19,.cls-1b0f9b97-20,.cls-1b0f9b97-21,.cls-1b0f9b97-4,.cls-1b0f9b97-7{fill-rule:evenodd;}.cls-1b0f9b97-6{fill:#bc8f2d;}.cls-1b0f9b97-12,.cls-1b0f9b97-7{fill:#dfbda5;}.cls-1b0f9b97-8{fill:#ccad14;}.cls-1b0f9b97-9{fill:#fff;}.cls-1b0f9b97-10,.cls-1b0f9b97-21{fill:#856400;}.cls-1b0f9b97-11{fill:#e5c828;}.cls-1b0f9b97-13{fill:#4f5253;}.cls-1b0f9b97-14{fill:#755800;}.cls-1b0f9b97-15{fill:#474747;}.cls-1b0f9b97-16,.cls-1b0f9b97-19{fill:#8b6651;}.cls-1b0f9b97-18{fill:#e8cab6;}.cls-1b0f9b97-20{fill:#bf8f00;}</style><clipPath id="1b0f9b97-clip-path"><circle class="cls-1b0f9b97-1" cx="175" cy="175" r="175"/></clipPath></defs><circle class="face__bg" cx="175" cy="175" r="175"/><g class="cls-1b0f9b97-3"><path class="cls-1b0f9b97-4" d="M259.54,369.25q17.63-.81,35.26-1.14l0-1.55-55-81.28-60.27-13.74,75.7,97.92Z"/><polygon class="cls-1b0f9b97-5" points="132.35 279.61 125.38 192.31 115.15 128.23 149.63 124.42 148.66 101.15 274.73 79.81 270.85 99.21 191.32 147.7 189.39 276.36 132.35 279.61"/><polygon class="cls-1b0f9b97-6" points="122.52 170.65 122.52 53.95 234.64 47.31 274.73 79.81 270.85 99.21 219.13 119.9 153.18 131.53 154.33 153.46 122.52 170.65"/><path class="cls-1b0f9b97-7" d="M88.14,362.12,121,323.69l-18.54-39.4L43.31,355l4.78,2.09C61.48,358.13,74.82,360,88.14,362.12Z"/><polygon class="cls-1b0f9b97-8" points="122.52 53.95 94.3 91.2 80.54 108.98 72.36 174.85 47.16 253.8 102.41 284.29 145.59 271.02 122.52 170.65 122.52 53.95"/><polygon class="cls-1b0f9b97-9" points="123.56 102.65 109.61 117.93 116.71 133.22 123.56 102.65"/><polygon class="cls-1b0f9b97-10" points="123.56 102.65 122.52 170.65 86.3 100.18 84.43 77.65 122.52 53.95 123.56 102.65"/><polygon class="cls-1b0f9b97-11" points="72.36 174.85 122.52 170.65 109.07 194.58 75.92 269.68 47.16 253.8 72.36 174.85"/><rect class="cls-1b0f9b97-12" x="114.03" y="175.77" width="27.32" height="27.32" transform="translate(-100.07 207.11) rotate(-60.46)"/><path class="cls-1b0f9b97-13" d="M117.12,366.91c4.18.68,8.36,1.35,12.53,2,31.1,3.56,62.59,3.2,93.94,2l27.72-29.8L241.75,295l-7.44-6.42-20.48-11.63-47.11,7.37L132,275.2l-29.59,9.09,5.79,54.33Z"/><polygon class="cls-1b0f9b97-11" points="281.92 100.18 274.73 79.81 122.52 53.95 212.18 109.88 281.92 100.18"/><polygon class="cls-1b0f9b97-8" points="149.3 113.77 123.23 87.03 122.52 53.95 215.57 108.91 149.3 113.77"/><polygon class="cls-1b0f9b97-14" points="122.52 170.65 80.54 108.98 84.43 77.65 122.52 170.65"/><path class="cls-1b0f9b97-15" d="M129.65,368.89c38.77,4.44,78.14,2.79,117.1,1l4.56-28.78L194.94,363l-86.74-24.4,2.91,27.3C117.29,367,123.47,368,129.65,368.89Z"/><polygon class="cls-1b0f9b97-16" points="191.26 269.63 145.59 271.02 132 275.2 184.69 307.47 211.29 284.32 219.35 278.7 191.26 269.63"/><polygon class="cls-1b0f9b97-16" points="130.02 197.82 125.3 180.74 136.16 186.97 130.02 197.82"/><polygon class="cls-1b0f9b97-9" points="130.02 197.82 123.47 209.5 135.05 216.06 141.95 203.9 130.02 197.82"/><polygon class="cls-1b0f9b97-12" points="281.16 266.91 169.04 270.31 149.3 113.77 281.92 100.18 281.16 266.91"/><polygon class="cls-1b0f9b97-5" points="176.09 154.34 229.97 190.77 273.29 141.24 256.15 127.73 240.34 145.19 227.06 165.56 225.12 156.83 176.09 154.34"/><path class="cls-1b0f9b97-17" d="M258.58,170.92a6.73,6.73,0,1,0-6.73-6.73,6.74,6.74,0,0,0,6.73,6.73"/><polygon class="cls-1b0f9b97-18" points="240.34 145.19 218.32 152.52 226.26 200.52 243.8 199.48 240.34 145.19"/><polygon class="cls-1b0f9b97-19" points="226.26 200.52 236.52 206.03 243.8 199.48 226.26 200.52"/><polygon class="cls-1b0f9b97-20" points="240.34 145.19 259.82 120.85 273.29 141.24 259.09 132.86 240.34 145.19"/><polygon class="cls-1b0f9b97-20" points="218.32 152.52 176.09 154.34 219.76 161.25 218.32 152.52"/><rect x="190.68" y="166.84" width="22.84" height="5.21"/><polygon class="cls-1b0f9b97-20" points="239.76 226.25 202.49 224.35 191.38 216.03 199.97 232.99 228.47 239.54 239.76 226.25"/><polygon class="cls-1b0f9b97-21" points="191.38 216.03 203.78 227.71 226.02 230.94 239.76 226.25 229.98 223.06 206.48 222.67 191.38 216.03"/><polygon class="cls-1b0f9b97-15" points="211.29 284.32 218.18 278.33 239.74 285.28 241.75 294.97 211.29 284.32"/></g></svg>